<svg width="706" height="762" viewBox="0 0 706 762" fill="none" xmlns="http://www.w3.org/2000/svg">
<g filter="url(#filter0_d_124_21)">
<g clip-path="url(#clip0_124_21)">
<rect x="4" width="698" height="754" rx="15" fill="#FFF200"/>
<g clip-path="url(#clip1_124_21)">
<path d="M32 332C32 166.315 166.315 32 332 32H674V422C674 587.685 539.685 722 374 722H32V332Z" fill="white"/>
<path d="M283.966 370.815C289.548 374.019 294.055 378.806 296.916 384.571C299.777 390.336 300.864 396.82 300.04 403.203C299.216 409.586 296.518 415.581 292.287 420.431C288.055 425.28 282.481 428.766 276.269 430.448C270.056 432.129 263.485 431.931 257.385 429.877C251.286 427.824 245.932 424.008 242.001 418.912C238.07 413.816 235.739 407.668 235.302 401.247C234.865 394.826 236.341 388.42 239.545 382.838C243.842 375.353 250.935 369.881 259.266 367.627C267.596 365.372 276.481 366.519 283.966 370.815ZM219.987 352.852C224.174 355.255 227.553 358.845 229.699 363.169C231.845 367.493 232.661 372.356 232.043 377.143C231.425 381.93 229.401 386.427 226.227 390.064C223.054 393.701 218.873 396.315 214.214 397.576C209.555 398.837 204.626 398.688 200.051 397.148C195.477 395.608 191.461 392.746 188.513 388.924C185.565 385.102 183.817 380.492 183.489 375.676C183.161 370.86 184.268 366.055 186.671 361.869C189.894 356.255 195.214 352.152 201.462 350.461C207.71 348.769 214.374 349.63 219.987 352.852ZM166.21 350.125C169.001 351.727 171.255 354.12 172.685 357.003C174.116 359.885 174.659 363.127 174.247 366.319C173.835 369.51 172.486 372.508 170.371 374.932C168.255 377.357 165.468 379.1 162.362 379.941C159.255 380.782 155.97 380.682 152.92 379.656C149.87 378.629 147.193 376.721 145.228 374.173C143.262 371.625 142.097 368.551 141.878 365.341C141.66 362.13 142.398 358.927 144 356.136C146.148 352.394 149.695 349.658 153.86 348.53C158.025 347.403 162.468 347.976 166.21 350.125ZM125.134 354.687C127.924 356.289 130.178 358.682 131.608 361.565C133.039 364.447 133.582 367.689 133.17 370.881C132.758 374.072 131.409 377.07 129.294 379.495C127.178 381.92 124.391 383.663 121.285 384.503C118.178 385.344 114.893 385.245 111.843 384.218C108.793 383.191 106.116 381.283 104.151 378.735C102.186 376.187 101.02 373.114 100.801 369.903C100.583 366.693 101.321 363.489 102.923 360.698C105.071 356.956 108.618 354.22 112.783 353.093C116.949 351.965 121.391 352.539 125.134 354.687ZM182.227 500.019C187.169 502.812 192.64 504.54 198.289 505.092C203.938 505.644 209.64 505.007 215.028 503.223C220.417 501.44 225.372 498.548 229.576 494.734C233.779 490.92 237.138 486.268 239.436 481.078C243.28 471.519 243.502 460.885 240.061 451.173C236.621 441.461 229.754 433.338 220.75 428.33L185.755 408.243C167.23 397.58 145.718 393.292 124.52 396.036C103.323 398.78 83.6122 408.406 68.4137 423.435C62.763 428.908 59.2861 436.242 58.6265 444.081C57.4589 460.722 52.5432 476.884 44.2472 491.357C35.9597 504.762 24.9426 516.272 11.9128 525.138C7.84967 528.03 4.5378 531.852 2.25416 536.285C-0.029483 540.719 -1.21851 545.635 -1.21353 550.622C-0.72797 562.881 3.57393 574.683 11.0915 584.379C18.6091 594.075 28.9669 601.182 40.7189 604.707C49.4229 607.34 58.6311 607.851 67.573 606.196C76.515 604.542 84.9306 600.769 92.1158 595.196C99.301 589.622 105.047 582.408 108.873 574.158C112.698 565.908 114.493 556.862 114.106 547.777C113.589 538.401 115.982 529.094 120.958 521.131C120.958 521.131 142.011 476.935 182.227 500.019Z" fill="#FFF200"/>
<path d="M326.627 24.371C332.616 25.3127 338.192 28.0092 342.648 32.1196C347.105 36.23 350.243 41.5696 351.665 47.4632C353.087 53.3569 352.729 59.5398 350.637 65.2302C348.545 70.9206 344.812 75.8628 339.912 79.4319C335.011 83.001 329.162 85.0367 323.104 85.2816C317.046 85.5265 311.052 83.9695 305.879 80.8075C300.706 77.6456 296.587 73.0207 294.042 67.5177C291.498 62.0147 290.642 55.8808 291.584 49.8917C292.847 41.8604 297.248 34.6598 303.82 29.8737C310.392 25.0877 318.596 23.1083 326.627 24.371ZM264.288 30.0848C268.78 30.7911 272.962 32.8135 276.304 35.8962C279.647 38.979 282 42.9837 283.067 47.404C284.133 51.8242 283.865 56.4614 282.296 60.7292C280.727 64.997 277.928 68.7037 274.252 71.3805C270.576 74.0573 266.189 75.5841 261.646 75.7678C257.103 75.9514 252.607 74.7837 248.727 72.4122C244.848 70.0407 241.758 66.5721 239.85 62.4448C237.942 58.3176 237.3 53.7172 238.006 49.2253C238.953 43.2019 242.254 37.8014 247.183 34.2118C252.112 30.6223 258.265 29.1378 264.288 30.0848ZM216.052 45.7735C219.047 46.2443 221.834 47.5926 224.063 49.6477C226.291 51.7029 227.86 54.3727 228.571 57.3196C229.282 60.2664 229.103 63.3578 228.057 66.203C227.011 69.0482 225.145 71.5193 222.694 73.3039C220.244 75.0885 217.319 76.1063 214.29 76.2287C211.262 76.3512 208.264 75.5727 205.678 73.9917C203.091 72.4107 201.032 70.0983 199.76 67.3468C198.487 64.5953 198.06 61.5284 198.531 58.5338C199.162 54.5182 201.363 50.9178 204.649 48.5248C207.934 46.1318 212.036 45.1421 216.052 45.7735ZM181.442 63.6046C184.437 64.0754 187.225 65.4237 189.453 67.4789C191.681 69.5341 193.25 72.2039 193.961 75.1507C194.672 78.0975 194.493 81.189 193.447 84.0342C192.401 86.8794 190.535 89.3505 188.085 91.135C185.634 92.9196 182.71 93.9375 179.681 94.0599C176.652 94.1823 173.655 93.4038 171.068 91.8229C168.482 90.2419 166.422 87.9294 165.15 85.1779C163.878 82.4265 163.45 79.3595 163.921 76.3649C164.552 72.3493 166.753 68.749 170.039 66.356C173.325 63.9629 177.427 62.9732 181.442 63.6046ZM280.564 172.28C285.851 173.076 291.247 172.757 296.403 171.342C301.559 169.928 306.363 167.45 310.504 164.067C314.645 160.685 318.033 156.474 320.449 151.704C322.865 146.934 324.256 141.711 324.532 136.372C324.699 126.667 321.318 117.235 315.023 109.847C308.729 102.458 299.955 97.621 290.347 96.2428L252.798 90.3389C232.911 87.1875 212.54 90.6499 194.811 100.195C177.082 109.739 162.976 124.839 154.658 143.175C151.526 149.892 150.934 157.515 152.99 164.634C157.56 179.67 158.671 195.545 156.24 211.07C153.456 225.653 147.633 239.487 139.15 251.671C136.548 255.582 134.919 260.059 134.401 264.728C133.883 269.397 134.49 274.123 136.172 278.509C140.723 289.133 148.478 298.071 158.354 304.074C168.23 310.077 179.735 312.847 191.261 311.995C199.806 311.385 208.08 308.737 215.392 304.273C222.703 299.809 228.839 293.66 233.287 286.338C237.734 279.017 240.364 270.737 240.955 262.191C241.547 253.645 240.083 245.081 236.686 237.217C233.078 229.141 232.054 220.147 233.753 211.466C233.753 211.466 237.413 165.496 280.564 172.28Z" fill="#8000FF"/>
<g clip-path="url(#clip2_124_21)">
<path d="M279.981 504.229C286.639 499.355 294.594 496.566 302.838 496.213C311.082 495.861 319.246 497.961 326.296 502.247C333.347 506.534 338.968 512.816 342.449 520.298C345.929 527.779 347.113 536.125 345.851 544.279C344.588 552.434 340.936 560.031 335.356 566.11C329.776 572.189 322.519 576.476 314.502 578.43C306.485 580.385 298.068 579.918 290.317 577.089C282.565 574.259 275.827 569.195 270.953 562.537C264.418 553.607 261.698 542.448 263.391 531.513C265.084 520.578 271.051 510.764 279.981 504.229ZM225.639 569.85C230.633 566.195 236.599 564.103 242.782 563.839C248.965 563.574 255.088 565.149 260.376 568.364C265.664 571.58 269.88 576.291 272.49 581.902C275.101 587.513 275.989 593.772 275.042 599.888C274.095 606.004 271.356 611.702 267.171 616.261C262.986 620.82 257.543 624.036 251.53 625.502C245.517 626.967 239.205 626.617 233.391 624.495C227.578 622.373 222.524 618.575 218.869 613.581C213.967 606.884 211.927 598.515 213.197 590.314C214.467 582.112 218.942 574.752 225.639 569.85ZM194.46 631.445C197.789 629.009 201.766 627.614 205.888 627.438C210.01 627.261 214.092 628.311 217.618 630.455C221.143 632.598 223.953 635.739 225.694 639.48C227.434 643.221 228.026 647.393 227.395 651.471C226.764 655.548 224.938 659.346 222.147 662.386C219.357 665.425 215.729 667.569 211.72 668.546C207.712 669.523 203.504 669.29 199.628 667.875C195.752 666.461 192.383 663.929 189.946 660.599C186.679 656.135 185.319 650.555 186.165 645.088C187.011 639.62 189.995 634.713 194.46 631.445ZM178.431 681.952C181.76 679.516 185.737 678.121 189.859 677.945C193.982 677.768 198.063 678.818 201.589 680.962C205.114 683.105 207.924 686.246 209.665 689.987C211.405 693.728 211.997 697.9 211.366 701.978C210.735 706.055 208.909 709.853 206.119 712.893C203.328 715.932 199.7 718.076 195.691 719.053C191.683 720.03 187.475 719.797 183.599 718.382C179.723 716.968 176.354 714.436 173.917 711.106C170.65 706.642 169.29 701.062 170.136 695.595C170.983 690.127 173.966 685.22 178.431 681.952ZM378.437 690.677C384.281 686.34 389.153 680.829 392.739 674.497C396.325 668.164 398.547 661.152 399.26 653.909C399.974 646.667 399.164 639.356 396.882 632.445C394.6 625.535 390.898 619.178 386.012 613.785C376.81 604.307 364.466 598.513 351.295 597.491C338.124 596.468 325.033 600.288 314.479 608.233L272.731 638.787C250.597 654.945 234.378 677.921 226.564 704.188C218.749 730.454 219.771 758.56 229.473 784.189C232.945 793.658 239.73 801.549 248.573 806.401C267.465 816.429 283.845 830.599 296.487 847.851C307.882 864.538 315.637 883.437 319.245 903.318C320.519 909.584 323.275 915.454 327.281 920.437C331.288 925.42 336.429 929.371 342.275 931.96C356.893 937.771 372.961 938.871 388.235 935.108C403.508 931.345 417.226 922.905 427.471 910.969C435.086 902.14 440.476 891.616 443.191 880.277C445.905 868.938 445.864 857.114 443.071 845.794C440.279 834.474 434.816 823.988 427.14 815.212C419.464 806.436 409.797 799.626 398.95 795.352C387.695 791.078 378.035 783.431 371.293 773.457C371.293 773.457 330.46 725.789 378.437 690.677Z" fill="#FF0000"/>
</g>
</g>
<path d="M429.736 379.563C423.348 381.053 417.544 384.404 413.06 389.192C408.576 393.98 405.613 399.99 404.544 406.463C403.476 412.935 404.351 419.579 407.058 425.554C409.766 431.529 414.185 436.567 419.755 440.031C425.326 443.495 431.799 445.229 438.356 445.014C444.912 444.799 451.257 442.645 456.589 438.824C461.921 435.002 466.001 429.686 468.311 423.546C470.622 417.407 471.06 410.72 469.57 404.331C467.572 395.765 462.253 388.342 454.783 383.698C447.312 379.053 438.303 377.566 429.736 379.563ZM497.458 380.799C492.667 381.916 488.314 384.429 484.951 388.02C481.588 391.611 479.366 396.119 478.564 400.973C477.763 405.827 478.419 410.81 480.45 415.292C482.481 419.773 485.794 423.551 489.973 426.149C494.151 428.747 499.005 430.048 503.923 429.887C508.84 429.726 513.599 428.11 517.598 425.244C521.597 422.378 524.657 418.391 526.389 413.786C528.122 409.181 528.451 404.166 527.333 399.375C525.835 392.95 521.846 387.383 516.243 383.899C510.64 380.416 503.883 379.3 497.458 380.799ZM550.752 393.914C547.557 394.658 544.656 396.334 542.414 398.728C540.172 401.122 538.69 404.127 538.156 407.363C537.621 410.599 538.059 413.921 539.413 416.909C540.766 419.896 542.976 422.415 545.761 424.147C548.547 425.879 551.783 426.746 555.061 426.639C558.339 426.531 561.512 425.454 564.178 423.544C566.844 421.633 568.884 418.975 570.039 415.905C571.194 412.835 571.413 409.492 570.668 406.297C569.669 402.014 567.01 398.303 563.275 395.981C559.54 393.658 555.035 392.915 550.752 393.914ZM589.509 410.418C586.315 411.163 583.414 412.838 581.172 415.232C578.929 417.626 577.448 420.631 576.914 423.868C576.379 427.104 576.817 430.426 578.171 433.413C579.524 436.401 581.734 438.92 584.519 440.652C587.305 442.384 590.541 443.251 593.819 443.143C597.097 443.036 600.27 441.959 602.936 440.048C605.602 438.137 607.642 435.479 608.797 432.409C609.952 429.34 610.171 425.996 609.426 422.802C608.427 418.519 605.768 414.808 602.033 412.485C598.298 410.163 593.793 409.419 589.509 410.418ZM491.141 535.531C485.499 536.808 479.651 536.889 473.975 535.771C468.299 534.652 462.92 532.358 458.183 529.036C453.447 525.714 449.458 521.437 446.474 516.481C443.489 511.525 441.575 505.999 440.855 500.259C439.908 489.8 442.81 479.354 449.018 470.884C455.226 462.413 464.312 456.499 474.57 454.252L514.623 444.911C535.834 439.937 558.091 442.062 577.977 450.96C597.863 459.858 614.28 475.036 624.706 494.165C628.617 501.165 629.859 509.345 628.203 517.19C624.46 533.777 624.517 550.995 628.369 567.556C632.526 583.073 639.904 597.54 650.021 610.017C653.139 614.032 655.251 618.734 656.179 623.732C657.108 628.729 656.826 633.877 655.358 638.743C651.288 650.568 643.626 660.826 633.443 668.085C623.26 675.344 611.065 679.242 598.559 679.235C589.29 679.252 580.152 677.05 571.909 672.811C563.666 668.572 556.558 662.421 551.18 654.872C545.801 647.324 542.309 638.596 540.995 629.421C539.681 620.246 540.583 610.889 543.626 602.134C546.881 593.134 547.275 583.347 544.755 574.114C544.755 574.114 537.17 524.797 491.141 535.531Z" fill="#009C22"/>
<path d="M366.167 115.503C360.369 118.845 355.692 123.831 352.727 129.831C349.763 135.832 348.644 142.576 349.513 149.212C350.382 155.848 353.199 162.078 357.608 167.113C362.017 172.148 367.82 175.762 374.284 177.499C380.747 179.236 387.58 179.017 393.919 176.87C400.258 174.724 405.818 170.745 409.896 165.439C413.974 160.132 416.387 153.735 416.83 147.057C417.272 140.379 415.725 133.72 412.383 127.922C407.901 120.146 400.514 114.47 391.847 112.141C383.18 109.812 373.943 111.021 366.167 115.503ZM432.664 96.7028C428.316 99.2094 424.808 102.949 422.584 107.449C420.361 111.95 419.522 117.008 420.174 121.985C420.825 126.962 422.938 131.634 426.245 135.41C429.552 139.187 433.904 141.898 438.752 143.2C443.599 144.503 448.724 144.339 453.478 142.729C458.233 141.119 462.403 138.135 465.461 134.155C468.52 130.175 470.329 125.377 470.661 120.369C470.993 115.36 469.832 110.366 467.326 106.017C463.965 100.186 458.424 95.9281 451.924 94.1813C445.424 92.4345 438.496 93.3415 432.664 96.7028ZM488.581 93.7659C485.682 95.437 483.343 97.9303 481.861 100.93C480.379 103.931 479.819 107.303 480.254 110.621C480.688 113.939 482.097 117.054 484.301 119.571C486.506 122.089 489.407 123.896 492.639 124.764C495.871 125.633 499.287 125.523 502.457 124.45C505.626 123.376 508.407 121.387 510.446 118.734C512.485 116.081 513.691 112.882 513.912 109.543C514.133 106.204 513.36 102.875 511.689 99.9755C509.448 96.0878 505.754 93.2495 501.421 92.0849C497.087 90.9204 492.469 91.5251 488.581 93.7659ZM531.305 98.4333C528.405 100.104 526.067 102.598 524.585 105.598C523.103 108.598 522.543 111.97 522.978 115.288C523.412 118.606 524.821 121.721 527.025 124.238C529.23 126.756 532.131 128.563 535.363 129.431C538.595 130.3 542.011 130.191 545.181 129.117C548.35 128.044 551.13 126.055 553.169 123.401C555.208 120.748 556.415 117.55 556.636 114.211C556.857 110.872 556.083 107.542 554.412 104.643C552.172 100.755 548.478 97.9168 544.145 96.7523C539.811 95.5877 535.192 96.1924 531.305 98.4333ZM472.206 249.669C467.073 252.582 461.387 254.39 455.514 254.974C449.64 255.559 443.71 254.908 438.103 253.063C432.496 251.218 427.338 248.22 422.96 244.261C418.581 240.303 415.079 235.473 412.68 230.08C408.665 220.146 408.414 209.089 411.974 198.983C415.533 188.877 422.659 180.418 432.013 175.193L468.366 154.239C487.61 143.116 509.972 138.616 532.02 141.43C554.068 144.244 574.583 154.217 590.416 169.817C596.302 175.497 599.931 183.118 600.632 191.268C601.877 208.571 607.019 225.368 615.673 240.403C624.317 254.327 635.795 266.276 649.361 275.471C653.591 278.47 657.043 282.438 659.426 287.044C661.809 291.65 663.054 296.76 663.058 301.946C662.576 314.695 658.125 326.976 650.326 337.073C642.527 347.17 631.769 354.579 619.555 358.267C610.509 361.022 600.934 361.57 591.632 359.866C582.331 358.162 573.572 354.255 566.09 348.473C558.608 342.69 552.619 335.199 548.626 326.627C544.632 318.056 542.749 308.652 543.135 299.204C543.654 289.453 541.148 279.78 535.959 271.508C535.959 271.508 513.983 225.589 472.206 249.669Z" fill="#8DACFD"/>
</g>
</g>
<defs>
<filter id="filter0_d_124_21" x="0" y="0" width="706" height="762" filterUnits="userSpaceOnUse" color-interpolation-filters="sRGB">
<feFlood flood-opacity="0" result="BackgroundImageFix"/>
<feColorMatrix in="SourceAlpha" type="matrix" values="0 0 0 0 0 0 0 0 0 0 0 0 0 0 0 0 0 0 127 0" result="hardAlpha"/>
<feOffset dy="4"/>
<feGaussianBlur stdDeviation="2"/>
<feComposite in2="hardAlpha" operator="out"/>
<feColorMatrix type="matrix" values="0 0 0 0 0 0 0 0 0 0 0 0 0 0 0 0 0 0 0.25 0"/>
<feBlend mode="normal" in2="BackgroundImageFix" result="effect1_dropShadow_124_21"/>
<feBlend mode="normal" in="SourceGraphic" in2="effect1_dropShadow_124_21" result="shape"/>
</filter>
<clipPath id="clip0_124_21">
<rect x="4" width="698" height="754" rx="15" fill="white"/>
</clipPath>
<clipPath id="clip1_124_21">
<path d="M32 332C32 166.315 166.315 32 332 32H674V422C674 587.685 539.685 722 374 722H32V332Z" fill="white"/>
</clipPath>
<clipPath id="clip2_124_21">
<rect width="500.653" height="500.653" fill="white" transform="translate(-14 667.684) rotate(-36.1994)"/>
</clipPath>
</defs>
</svg>
